# xmcd
#
# Track frame offsets: 
#        150
#        14125
#        27781
#        41824
#        53205
#        66141
#        79949
#        91798
#        105019
#        118600
#        130396
#        144045
#
# Disc length: 2089 seconds
#
# Revision: 0
# Processed by: cddbd v1.5.2PL0 Copyright (c) Steve Scherf et al.
# Submitted via: ExactAudioCopyFreeDBPlugin 1.0
#
DISCID=9608270c
DTITLE=Lucas and Willian - A Primeira Vista 
DYEAR=2010
DGENRE=Sertanejo
TTITLE0=A Primeira Vista
TTITLE1=Até Quando
TTITLE2=Não Perca Tempo
TTITLE3=Festa de Peão
TTITLE4=Defendendo a tradição
TTITLE5=Garota acorda
TTITLE6=Xote da paixão
TTITLE7=Pedaços de Mim 
TTITLE8=Por toda a vida
TTITLE9=Bom Pagodeiro
TTITLE10=Nosso Planeta
TTITLE11=Pagode de Brasília
EXTD=
EXTT0=
EXTT1=
EXTT2=
EXTT3=
EXTT4=
EXTT5=
EXTT6=
EXTT7=
EXTT8=
EXTT9=
EXTT10=
EXTT11=
PLAYORDER=
